<?xml version="1.0" encoding="UTF-8"?>
<svg version="1.1" xmlns="http://www.w3.org/2000/svg" width="512" height="512">
<path d="M0 0 C0.99373753 -0.04696675 1.98747505 -0.09393351 3.01132584 -0.14232349 C4.72518478 -0.23511333 4.72518478 -0.23511333 6.47366714 -0.32977772 C7.72941544 -0.37666737 8.98516373 -0.42355701 10.278965 -0.47186756 C11.6151798 -0.53460627 12.95134063 -0.59850375 14.28744888 -0.66347218 C26.61322141 -1.23290477 38.95507409 -1.52047843 51.29135132 -1.74806976 C59.56165945 -1.9036477 67.814797 -2.13146136 76.07584 -2.56073475 C135.91592262 -5.60937951 135.91592262 -5.60937951 155.49645233 11.85904884 C163.61905215 19.71964606 170.55757672 28.45679905 177.07230759 37.66679478 C179.01568215 40.25962354 181.1516731 42.39577065 183.52212906 44.60113049 C255.52212906 116.60113049 255.52212906 116.60113049 257.31119156 118.42534924 C257.93767593 119.06085705 258.56416031 119.69636486 259.20962906 120.35113049 C259.79099625 120.94409924 260.37236343 121.53706799 260.97134781 122.14800549 C262.4772688 123.69754853 262.4772688 123.69754853 264.52212906 124.60113049 C264.70900356 149.90492904 264.85008104 175.20862419 264.93662643 200.51297379 C264.97787902 212.26223917 265.03412151 224.01107583 265.12564468 235.76006603 C265.20537766 246.00040851 265.25699375 256.2404405 265.27483702 266.48108476 C265.28526764 271.90371919 265.30978269 277.32546538 265.36796951 282.74781513 C265.42230405 287.85257237 265.43901516 292.9560763 265.42699051 298.06109524 C265.42918997 299.93362841 265.44508571 301.80620383 265.47577286 303.67848682 C265.69686547 317.86459226 265.69686547 317.86459226 262.75697708 322.21044254 C260.75974411 323.96323994 258.80415396 325.25857143 256.52212906 326.60113049 C255.17475933 328.25647044 253.8387857 329.92125822 252.52212906 331.60113049 C250.87210078 332.95499984 249.20469036 334.28791191 247.52212906 335.60113049 C245.83450055 337.24656829 244.16809416 338.91401625 242.52212906 340.60113049 C241.67650406 341.42613049 240.83087906 342.25113049 239.95962906 343.10113049 C237.50197018 345.53028582 237.50197018 345.53028582 235.52212906 348.16363049 C233.40334298 350.74590101 231.15009984 352.55003134 228.52212906 354.60113049 C226.83450055 356.24656829 225.16809416 357.91401625 223.52212906 359.60113049 C222.69712906 360.40550549 221.87212906 361.20988049 221.02212906 362.03863049 C218.43932839 364.61053756 218.43932839 364.61053756 216.02212906 367.66363049 C213.68174514 370.41358159 211.36304558 372.39942018 208.52212906 374.60113049 C206.83450055 376.24656829 205.16809416 377.91401625 203.52212906 379.60113049 C202.67650406 380.42613049 201.83087906 381.25113049 200.95962906 382.10113049 C198.51060398 384.51859796 198.51060398 384.51859796 196.58462906 387.10113049 C194.1729839 390.02433674 191.45483986 392.20708085 188.52212906 394.60113049 C186.83501483 396.24709559 185.16756686 397.91350197 183.52212906 399.60113049 C182.67650406 400.42613049 181.83087906 401.25113049 180.95962906 402.10113049 C178.50197018 404.53028582 178.50197018 404.53028582 176.52212906 407.16363049 C174.40334298 409.74590101 172.15009984 411.55003134 169.52212906 413.60113049 C167.83450055 415.24656829 166.16809416 416.91401625 164.52212906 418.60113049 C163.67650406 419.42613049 162.83087906 420.25113049 161.95962906 421.10113049 C159.51060398 423.51859796 159.51060398 423.51859796 157.58462906 426.10113049 C155.1729839 429.02433674 152.45483986 431.20708085 149.52212906 433.60113049 C147.06232617 435.94652394 144.86265074 438.0971584 142.95962906 440.91363049 C142.24806656 441.74894299 142.24806656 441.74894299 141.52212906 442.60113049 C140.20212906 442.60113049 138.88212906 442.60113049 137.52212906 442.60113049 C137.02712906 385.18113049 137.02712906 385.18113049 136.52212906 326.60113049 C134.87212906 328.25113049 133.22212906 329.90113049 131.52212906 331.60113049 C130.67650406 332.26113049 129.83087906 332.92113049 128.95962906 333.60113049 C126.37735853 335.71991656 124.5732282 337.97315971 122.52212906 340.60113049 C120.87669126 342.288759 119.20924329 343.95516538 117.52212906 345.60113049 C116.69712906 346.44675549 115.87212906 347.29238049 115.02212906 348.16363049 C112.52212906 350.60113049 112.52212906 350.60113049 109.95962906 352.60113049 C107.37735853 354.71991656 105.5732282 356.97315971 103.52212906 359.60113049 C101.87669126 361.288759 100.20924329 362.95516538 98.52212906 364.60113049 C97.31556656 365.83863049 97.31556656 365.83863049 96.08462906 367.10113049 C93.52212906 369.60113049 93.52212906 369.60113049 90.45962906 372.10113049 C87.70967795 374.44151441 85.72383936 376.76021396 83.52212906 379.60113049 C81.87669126 381.288759 80.20924329 382.95516538 78.52212906 384.60113049 C77.31556656 385.83863049 77.31556656 385.83863049 76.08462906 387.10113049 C73.35087194 389.7682106 70.4553546 392.15677587 67.52212906 394.60113049 C64.83324744 397.15884715 62.39889323 399.74901348 60.02212906 402.60113049 C57.65098638 405.44650169 55.17233533 408.01717937 52.52212906 410.60113049 C51.31556656 411.83863049 51.31556656 411.83863049 50.08462906 413.10113049 C47.52212906 415.60113049 47.52212906 415.60113049 44.45962906 418.10113049 C41.70967795 420.44151441 39.72383936 422.76021396 37.52212906 425.60113049 C35.87669126 427.288759 34.20924329 428.95516538 32.52212906 430.60113049 C31.69712906 431.44675549 30.87212906 432.29238049 30.02212906 433.16363049 C27.52212906 435.60113049 27.52212906 435.60113049 24.83462906 437.72613049 C22.33059237 439.56674122 22.33059237 439.56674122 20.52212906 442.60113049 C15.15383252 442.26561195 11.38698263 439.07412017 7.52212906 435.60113049 C6.88275406 434.79159924 6.24337906 433.98206799 5.58462906 433.14800549 C3.45176695 430.51424394 1.27172346 428.65474963 -1.41537094 426.60113049 C-5.02506829 423.78187782 -8.27863959 420.88455214 -11.47787094 417.60113049 C-14.11481506 415.23374065 -16.80122845 412.92344106 -19.47787094 410.60113049 C-24.2856395 406.38730996 -28.95676245 402.12223898 -33.47787094 397.60113049 C-36.71589519 394.69394784 -40.01736665 391.85965014 -43.31380844 389.01909924 C-48.19895035 384.78324834 -52.94690685 380.41059106 -57.68832016 376.01568127 C-61.88523456 372.13173223 -66.14858132 368.33711275 -70.47787094 364.60113049 C-72.47559273 362.8555866 -74.47086525 361.10726907 -76.46615219 359.35894299 C-77.83534593 358.16256011 -79.20787962 356.96999126 -80.58333969 355.78081799 C-84.36015205 352.50710821 -87.94250246 349.13649897 -91.47787094 345.60113049 C-94.11463775 343.23318806 -96.79701275 340.91890399 -99.47787094 338.60113049 C-101.47695831 336.85435512 -103.47362883 335.10484857 -105.47005844 333.35503674 C-106.82558487 332.17092902 -108.18506904 330.99133891 -109.54818344 329.81597424 C-110.22623032 329.2294508 -110.90427719 328.64292736 -111.60287094 328.03863049 C-112.50392563 327.26325939 -112.50392563 327.26325939 -113.42318344 326.47222424 C-114.10123032 325.8547633 -114.77927719 325.23730236 -115.47787094 324.60113049 C-115.96845027 324.20113246 -116.4590296 323.80113443 -116.96447498 323.38901526 C-120.16130282 320.57929126 -121.36823299 319.14827416 -122.23012447 314.84704018 C-122.26157364 313.41445787 -122.26050103 311.98092315 -122.23304367 310.54825878 C-122.24169805 309.7544509 -122.25035243 308.96064303 -122.25926906 308.14278036 C-122.28080526 305.49138574 -122.25959251 302.84210124 -122.23836899 300.19073009 C-122.24486417 298.28664175 -122.2539266 296.38256068 -122.26536179 294.4784956 C-122.28843339 289.3131363 -122.27372982 284.14851629 -122.2508924 278.98318076 C-122.23197508 273.57762683 -122.24313481 268.17212249 -122.24979782 262.76655102 C-122.25613757 253.69005116 -122.23787159 244.6138475 -122.20516586 235.53740978 C-122.16766048 225.04215113 -122.16945528 214.54745332 -122.19220704 204.05216497 C-122.21314993 193.95643768 -122.2058863 183.86091778 -122.18588829 173.76519489 C-122.17789936 169.46820247 -122.17989729 165.17138533 -122.1899128 160.87439823 C-122.20045732 155.81560903 -122.18635595 150.75747413 -122.15316963 145.69878864 C-122.14495615 143.84162328 -122.14525376 141.98439804 -122.15464783 140.12723827 C-122.16605918 137.5930974 -122.1467229 135.06099666 -122.11951828 132.52701855 C-122.12998977 131.7908315 -122.14046126 131.05464446 -122.15125006 130.29614872 C-122.07250139 126.36297106 -121.61810619 124.76713906 -119.04323673 121.71904373 C-117.77338067 120.67067667 -117.77338067 120.67067667 -116.47787094 119.60113049 C-115.92099594 119.00300549 -115.36412094 118.40488049 -114.79037094 117.78863049 C-113.47787094 116.60113049 -113.47787094 116.60113049 -111.47787094 116.60113049 C-111.25744125 116.05327892 -111.03701157 115.50542736 -110.80990219 114.94097424 C-109.05916966 111.86564054 -106.68840029 109.59954328 -104.16537094 107.16363049 C-103.69164047 106.69892345 -103.21791 106.23421642 -102.72982407 105.75542736 C-101.31520708 104.36790291 -99.89655582 102.98449541 -98.47787094 101.60113049 C-96.8100048 99.93566415 -95.14311372 98.26921983 -93.47787094 96.60113049 C-92.36412094 95.51831799 -92.36412094 95.51831799 -91.22787094 94.41363049 C-88.73599101 91.86511692 -86.35420899 89.25680629 -83.97787094 86.60113049 C-80.20014135 82.37933003 -76.28922629 78.36217041 -72.22787094 74.41363049 C-68.91524953 71.02572222 -65.77870087 67.4975819 -62.62240219 63.96441174 C-60.31931914 61.42640582 -57.90079337 59.02405291 -55.47787094 56.60113049 C-54.81787094 55.77613049 -54.15787094 54.95113049 -53.47787094 54.10113049 C-51.31232767 51.3942014 -48.92859332 49.05185287 -46.47787094 46.60113049 C-45.47017532 45.42015387 -44.47048434 44.23231172 -43.47787094 43.03863049 C-41.04591949 40.15885165 -38.47232486 37.90455658 -35.47787094 35.60113049 C-32.04833747 32.34747052 -28.98601643 28.88036035 -25.93490219 25.28081799 C-23.89633867 22.93073135 -21.7033188 20.77482374 -19.47787094 18.60113049 C-17.19126913 16.31870893 -14.90892413 14.03206914 -12.62630844 11.74566174 C-11.38688384 10.50849063 -10.14403198 9.27469189 -8.89193344 8.05034924 C-7.08461043 6.28136338 -5.52132482 4.67155534 -4.18813324 2.51087761 C-2.47787094 0.60113049 -2.47787094 0.60113049 0 0 Z M18.52212906 123.60113049 C18.52212906 188.61113049 18.52212906 253.62113049 18.52212906 320.60113049 C57.79212906 320.60113049 97.06212906 320.60113049 137.52212906 320.60113049 C137.52212906 255.59113049 137.52212906 190.58113049 137.52212906 123.60113049 C98.25212906 123.60113049 58.98212906 123.60113049 18.52212906 123.60113049 Z " fill="#7558B5" transform="translate(184.4778709411621,34.39886951446533)"/>
</svg>
