<svg version="1.2" baseProfile="tiny-ps" xmlns="http://www.w3.org/2000/svg" width="428" height="375" viewBox="0 0 428 375" style="shape-rendering:geometricPrecision;text-rendering:geometricPrecision;image-rendering:optimizeQuality;fill-rule:evenodd;clip-rule:evenodd">
<title>AHBS</title>
<path fill="#6f57af" d="M151.5-.5h92q13.737 1.245 28 1.5L376 105.5a6721 6721 0 0 1 0 164 15502 15502 0 0 0-104.5 105h-2q.25-50.002-.5-100a14057 14057 0 0 0-99.5 100h-3A17810 17810 0 0 0 50 269.5a6724 6724 0 0 1 0-164A15107 15107 0 0 0 151.5-.5m17 104h101v168h-101z" style="opacity:1"/>
</svg>
