<?xml version="1.0" encoding="UTF-8"?>
<svg version="1.2" baseProfile="tiny-ps" xmlns="http://www.w3.org/2000/svg" width="512" height="512">
<title>AHBS</title>
<path d="M0 0 C0.99373753 -0.04696675 1.98747505 -0.09393351 3.01132584 -0.14232349 C4.72518478 -0.23511333 4.72518478 -0.23511333 6.47366714 -0.32977772 C7.72941544 -0.37666737 8.98516373 -0.42355701 10.278965 -0.47186756 C11.6151798 -0.53460627 12.95134063 -0.59850375 14.28744888 -0.66347218 C26.61322141 -1.23290477 38.95507409 -1.52047843 51.29135132 -1.74806976 C59.56165945 -1.9036477 67.814797 -2.13146136 76.07584 -2.56073475 C135.91592262 -5.60937951 135.91592262 -5.60937951 155.49645233 11.85904884 C163.61905215 19.71964606 170.55757672 28.45679905 177.07230759 37.66679478 C179.01568215 40.25962354 181.1516731 42.39577065 183.52212906 44.60113049 C255.52212906 116.60113049 255.52212906 116.60113049 257.31119156 118.42534924 C257.93767593 119.06085705 258.56416031 119.69636486 259.20962906 120.35113049 C259.79099625 120.94409924 260.37236343 121.53706799 260.97134781 122.14800549 C262.4772688 123.69754853 262.4772688 123.69754853 264.52212906 124.60113049 C264.70900356 149.90492904 264.85008104 175.20862419 264.93662643 200.51297379 C264.97787902 212.26223917 265.03412151 224.01107583 265.12564468 235.76006603 C265.20537766 246.00040851 265.25699375 256.2404405 265.27483702 266.48108476 C265.28526764 271.90371919 265.30978269 277.32546538 265.36796951 282.74781513 C265.42230405 287.85257237 265.43901516 292.9560763 265.42699051 298.06109524 C265.42918997 299.93362841 265.44508571 301.80620383 265.47577286 303.67848682 C265.69686547 317.86459226 265.69686547 317.86459226 262.75697708 322.21044254 C260.75974411 323.96323994 258.80415396 325.25857143 256.52212906 326.60113049 C255.17475933 328.25647044 253.8387857 329.92125822 252.52212906 331.60113049 C250.87210078 332.95499984 249.20469036 334.28791191 247.52212906 335.60113049 C245.83450055 337.24656829 244.16809416 338.91401625 242.52212906 340.60113049 C241.67650406 341.42613049 240.83087906 342.25113049 239.95962906 343.10113049 C237.50197018 345.53028582 237.50197018 345.53028582 235.52212906 348.16363049 C233.40334298 350.74590101 231.15009984 352.55003134 228.52212906 354.60113049 Z" fill="#7558B5"/>
</svg>
